<?xml version="1.0" encoding="utf-8"?>
<svg version="1.1" xmlns="http://www.w3.org/2000/svg" xmlns:xlink="http://www.w3.org/1999/xlink" x="0px" y="0px"
  viewBox="0 0 1000 1000" enable-background="new 0 0 1000 1000" xml:space="preserve">
  <g>
    <g transform="translate(0.000000,511.000000) scale(0.100000,-0.100000)">
      <path fill="#dc3545"
        d="M4680.1,4966.4c-38.2-4-156.9-18.1-261.6-30.2c-1064.4-118.7-2102.7-619.7-2871.3-1384.3C342,2356.7-157,640.4,227.3-987.4c446.7-1897.4,2000-3358.2,3929.6-3692.2c1227.4-215.3,2515.1,52.3,3551.4,734.4c1002,662,1734.4,1682.1,2042.3,2849.2c199.2,756.6,199.2,1654,0,2410.5c-225.4,855.1-668,1621.8-1295.8,2241.5C7700.3,4302.4,6730.4,4779.3,5666,4928.2C5442.7,4958.4,4822.9,4984.5,4680.1,4966.4z M4573.4,3010.7c12.1-8.1,32.2-38.2,42.2-64.4c12.1-30.2,18.1-1191.2,16.1-2919.6c-2-2400.4-6-2875.3-30.2-2901.5c-24.2-30.2-92.6-34.2-627.8-34.2c-595.6,0-599.6,0-629.8,44.3c-28.2,40.2-32.2,352.1-32.2,2927.6c0,2857.2,0,2883.4,40.2,2923.6c38.2,38.2,66.4,40.2,619.7,40.2C4289.7,3026.8,4559.4,3018.7,4573.4,3010.7z M6672.1,2986.5c40.2-40.2,40.2-66.4,40.2-2925.6c0-2718.4-2-2887.4-34.2-2927.6c-36.2-42.2-44.3-42.2-639.8-38.2l-601.6,6l-26.2,50.3c-20.1,40.2-24.1,635.8-20.1,2933.7c4,2829,4,2885.4,42.3,2913.6c32.2,22.1,150.9,28.2,619.7,28.2C6605.7,3026.8,6633.8,3024.7,6672.1,2986.5z" />
    </g>
  </g>
</svg>